HIERARCHY
ROOT Hips
{
  OFFSET 57.8838 95.319 338.509
  CHANNELS 6 Xposition Yposition Zposition Zrotation Xrotation Yrotation
  JOINT LeftUpLeg
  {
    OFFSET 8.64259 1.95398 -2.38835
    CHANNELS 3 Zrotation Xrotation Yrotation
    JOINT LeftLeg
    {
      OFFSET 43.7702 0 0
      CHANNELS 3 Zrotation Xrotation Yrotation
      JOINT LeftFoot
      {
        OFFSET 40.6238 0 0
        CHANNELS 3 Zrotation Xrotation Yrotation
        JOINT LeftToeBase
        {
          OFFSET 12.7242 0 0
          CHANNELS 3 Zrotation Xrotation Yrotation
          End Site
          {
            OFFSET 0 0 0
          }
        }
      }
    }
  }
  JOINT RightUpLeg
  {
    OFFSET -8.2249 1.95398 -2.59336
    CHANNELS 3 Zrotation Xrotation Yrotation
    JOINT RightLeg
    {
      OFFSET 43.5653 0 0
      CHANNELS 3 Zrotation Xrotation Yrotation
      JOINT RightFoot
      {
        OFFSET 40.6238 0 0
        CHANNELS 3 Zrotation Xrotation Yrotation
        JOINT RightToeBase
        {
          OFFSET 12.7242 0 0
          CHANNELS 3 Zrotation Xrotation Yrotation
          End Site
          {
            OFFSET 0 0 0
          }
        }
      }
    }
  }
  JOINT Spine
  {
    OFFSET 0.165834 0.87714 6.61349
    CHANNELS 3 Zrotation Xrotation Yrotation
    JOINT Spine1
    {
      OFFSET 7.38963 1.71661e-005 0
      CHANNELS 3 Zrotation Xrotation Yrotation
      JOINT Spine2
      {
        OFFSET 11.9445 1.14441e-005 0
        CHANNELS 3 Zrotation Xrotation Yrotation
        JOINT Spine3
        {
          OFFSET 14.7254 4.19617e-005 0
          CHANNELS 3 Zrotation Xrotation Yrotation
          JOINT Spine4
          {
            OFFSET 10.9679 0 0
            CHANNELS 3 Zrotation Xrotation Yrotation
            JOINT RightShoulder
            {
              OFFSET 2.46616 -1.6653 3.69651
              CHANNELS 3 Zrotation Xrotation Yrotation
              JOINT RightArm
              {
                OFFSET 13.0012 0 0
                CHANNELS 3 Zrotation Xrotation Yrotation
                JOINT RightForeArm
                {
                  OFFSET 28.7848 1.62311e-005 0
                  CHANNELS 3 Zrotation Xrotation Yrotation
                  JOINT RightHand
                  {
                    OFFSET 26.5688 1.62095e-005 0
                    CHANNELS 3 Zrotation Xrotation Yrotation
                    End Site
                    {
                      OFFSET 0 0 0
                    }
                  }
                }
              }
            }
            JOINT LeftShoulder
            {
              OFFSET 2.38034 -1.29275 -3.7523
              CHANNELS 3 Zrotation Xrotation Yrotation
              JOINT LeftArm
              {
                OFFSET 16.3182 6.07031e-005 0
                CHANNELS 3 Zrotation Xrotation Yrotation
                JOINT LeftForeArm
                {
                  OFFSET 27.0901 0 0
                  CHANNELS 3 Zrotation Xrotation Yrotation
                  JOINT LeftHand
                  {
                    OFFSET 24.5451 1.51738e-005 0
                    CHANNELS 3 Zrotation Xrotation Yrotation
                    End Site
                    {
                      OFFSET 0 0 0
                    }
                  }
                }
              }
            }
            JOINT Neck
            {
              OFFSET 5.0226 -0.0266342 0
              CHANNELS 3 Zrotation Xrotation Yrotation
              JOINT Head
              {
                OFFSET 6.69364 2.86102e-005 0
                CHANNELS 3 Zrotation Xrotation Yrotation
                End Site
                {
                  OFFSET 0 0 0
                }
              }
            }
          }
        }
      }
    }
  }
}
MOTION
Frames:	9
Frame Time:	0.0416667
-122.185 87.7288 -92.409 86.9994 -40.3768 90.7148 -178.756 51.0547 80.1861 -93.2807 6.26635 5.23082 55.6622 -0.577743 14.1636 47.2152 8.97584 11.3523 172.027 -4.60514 101.082 -38.0337 -11.3328 3.82604 70.4391 -4.51379 6.10841 37.9232 -12.8397 -3.87354 1.72755 8.34697 -90.7887 10.2099 3.08207 -1.83338 -1.45886 2.99839 -1.9673 -24.0207 3.49046 -0.821508 -4.00811 3.49046 -0.821504 96.0666 -42.8664 -92.3994 26.6743 -41.3989 -0.288433 0.231567 18.9698 -121.298 -7.04855 -1.08019 13.463 -81.0318 -46.9775 92.0413 13.7185 59.3429 -0.0518004 -27.6923 -8.1752 -107.862 12.6512 -1.57786 -15.609 21.3743 -5.70377 2.2016 -9.32503 -5.9373 -4.35969 
-101.391 91.3979 -72.3383 84.9739 -41.0721 88.5352 175.412 50.1081 84.3942 -49.661 11.2955 1.12717 53.7969 -4.15939 8.42071 49.5266 10.6139 13.9969 175.438 -19.7895 96.2437 -28.6873 -14.349 -0.527086 47.5485 21.9439 19.7611 17.7202 16.1589 -4.35341 2.0166 7.96035 -90.428 10.9798 3.81672 -1.2095 -0.686231 3.7598 -1.37652 -23.2668 4.00352 -0.00469848 -3.25417 4.00352 -0.00470062 96.9631 -43.5125 -90.7983 29.9636 -41.3666 5.24911 5.33795 15.8779 -125.736 -8.58368 -1.30231 12.6899 -82.0649 -45.4118 90.2971 7.26522 62.4354 8.13823 -25.0279 -9.30809 -109.05 12.0275 -1.67063 -16.8219 19.3285 -7.21758 2.84181 -10.8494 -7.41048 -5.90936 
-82.6195 91.5268 -53.7004 90.4039 -42.1018 93.5597 178.869 41.1166 84.4416 -35.6453 12.3561 -2.25258 49.8899 -11.0862 3.02251 51.8652 11.7789 13.8714 174.87 -12.9672 98.2968 -69.0301 -19.6058 -1.26085 49.1299 17.3133 6.73543 13.9856 19.6539 0.176563 1.64447 8.56001 -90.5578 9.77187 3.02573 -1.34709 -1.89635 2.96351 -1.47905 -24.4596 3.2906 -0.374561 -4.44699 3.2906 -0.37456 97.0931 -44.4038 -90.4729 31.8953 -38.1498 9.287 -0.0660146 18.417 -124.118 -7.01757 -0.928545 11.0887 -81.7544 -47.0968 90.9258 5.4946 56.5932 4.66682 -21.0583 -8.81033 -105.705 12.4615 -1.62079 -16.1016 24.6929 -5.36272 1.45882 -14.0681 -5.35444 -3.14308 
-63.4629 88.9684 -35.4042 98.2702 -37.2062 92.7698 -175.815 24.5156 73.6234 -47.0997 18.7377 -4.09204 57.8381 4.3286 21.9474 39.3486 4.2267 -1.12314 166.789 5.32008 89.6315 -107.519 -14.4278 -2.8128 52.9276 10.724 -1.51326 19.3951 13.656 -4.07267 0.360821 9.39087 -89.8514 8.09127 0.7854 0.248603 -3.57945 0.795597 0.213788 -26.1159 0.674388 0.473163 -6.10327 0.674364 0.473157 98.0889 -46.7587 -88.6045 35.9947 -31.2564 16.9921 -5.6323 20.5381 -123.872 -4.94561 -0.543977 8.51919 -82.645 -49.4772 89.752 14.1491 49.3173 -11.7469 -20.4821 -7.04423 -100.035 9.83222 -1.27442 -15.4101 27.9282 -4.52318 -4.61373 -13.5571 -2.84324 2.69896 
-43.2673 87.2554 -16.7457 92.5193 -34.767 88.5362 -178.941 7.09992 71.8771 -47.5412 23.0959 -1.31065 61.5968 13.8361 28.9798 57.0075 12.5446 4.78832 169.258 38.5586 90.5588 -113.981 -12.1556 -3.24813 55.9936 7.22789 1.25153 26.0419 4.27435 -5.4127 -0.878016 8.43614 -89.5801 10.0158 -1.5588 0.964325 -1.65455 -1.51483 1.03199 -24.1976 -1.77657 0.451138 -4.18494 -1.77657 0.45113 99.4181 -43.1419 -86.679 46.5267 -28.3408 29.824 -5.31372 21.293 -129.409 -7.46268 -1.00339 11.1942 -82.1603 -47.6676 90.3353 26.7113 52.2722 -27.572 -26.9385 -7.41281 -98.9757 7.9429 -1.06523 -15.1426 23.1235 -2.56496 -9.99526 -13.769 0.2607 6.6798 
-21.1611 91.0951 3.6097 92.5074 -31.0405 93.762 -175.568 -13.9114 86.0303 -35.5577 25.5562 3.75827 56.6785 -4.54697 6.86064 47.5824 8.454 7.31807 168.266 46.0721 94.0529 -80.5979 -15.3027 0.0321188 59.6971 4.21569 1.5523 31.0061 -3.11889 -8.72489 -1.71836 8.04758 -90.5203 10.7824 -3.66117 -0.676414 -0.883617 -3.68734 -0.514441 -23.4518 -3.28857 -1.74649 -3.43914 -3.28856 -1.74649 98.7109 -38.4757 -88.2945 51.6875 -22.2367 43.66 -2.85199 20.6912 -135.498 -4.52687 -0.60177 10.991 -82.3547 -45.7491 89.8669 37.4276 60.0354 -37.5732 -27.8721 -8.97283 -103.855 6.86093 -0.950191 -14.9836 22.0969 0.0102226 -14.1389 -18.0793 2.74058 13.9238 
-0.210816 93.2053 23.2707 91.6093 -30.328 92.5182 -178.094 -20.2403 87.7986 -49.9219 19.0692 6.554 46.8701 -12.9381 2.3897 42.9559 6.61403 9.97006 174.088 42.0616 88.4047 -36.2621 -12.012 3.25788 55.2248 11.5679 9.30938 33.2955 -6.99582 -12.2667 -2.26009 7.77465 -90.5907 11.3174 -4.77294 -0.70333 -0.344787 -4.79929 -0.492103 -22.9397 -4.3405 -2.10783 -2.9271 -4.34049 -2.10783 97.4659 -38.5171 -90.5165 47.9529 -21.8408 44.0694 -0.239848 18.5637 -136.339 -1.57578 -0.161186 10.7806 -81.208 -43.4363 91.5249 35.2551 65.5977 -31.6266 -28.6358 -8.85077 -113.264 6.79163 -0.945613 -15.008 21.9809 0.182161 -21.6159 -21.0895 3.82728 21.5478 
19.8647 91.8256 42.2722 96.3663 -30.9167 95.1319 -175.136 -12.5105 88.2504 -88.6158 10.6738 6.59586 49.7674 -8.01648 7.80825 43.5185 6.56077 6.54575 169.743 33.714 89.9939 -28.5447 -7.20714 6.33279 49.3907 20.7681 19.1304 34.346 -9.43166 -17.092 -1.68876 8.33629 -90.6237 10.1889 -3.64951 -0.928889 -1.47719 -3.68685 -0.767168 -24.0431 -3.20151 -1.98369 -4.03044 -3.20152 -1.9837 98.8007 -41.296 -87.8764 43.0434 -23.0897 31.8379 -1.19318 17.1597 -131.276 -3.45596 -0.396157 9.71624 -81.4317 -42.3664 91.0722 30.3112 57.8715 -28.7244 -25.5335 -8.32675 -109.586 7.09497 -0.925668 -14.4292 22.4087 -1.43096 -18.6494 -18.3947 2.26084 18.4763 
39.2699 88.8684 61.474 100.045 -32.3256 102.845 -171.307 6.51861 95.4584 -112.353 3.35236 6.57342 51.9272 -2.76832 13.7644 44.0659 6.90605 7.52409 166.645 23.3879 100.987 -49.2928 -15.4721 7.93679 65.6199 -5.96462 -3.95412 28.7809 -0.233146 6.15411 -0.750982 8.594 -91.4559 9.64835 -2.15464 -2.71085 -2.02352 -2.27181 -2.61346 -24.5411 -1.24084 -3.23261 -4.52848 -1.24088 -3.23262 98.6405 -44.0799 -87.9221 34.9822 -29.483 14.891 0.188513 15.5816 -124.55 -7.94511 -0.967183 9.31601 -81.1476 -46.0036 91.8036 22.6115 54.0213 -21.3701 -28.1372 -7.00452 -105.435 13.5931 -1.36617 -13.4226 21.0321 -0.610018 -7.19926 -16.5573 0.576987 9.09664 
